<svg xmlns="http://www.w3.org/2000/svg" width="1600" height="1100" viewBox="0 0 1600 1100" fill="none">

  <defs>
    <linearGradient id="g-primary" x1="0" y1="0" x2="1" y2="1">
      <stop offset="0%" stop-color="#0EA5A0"/>
      <stop offset="100%" stop-color="#2563EB"/>
    </linearGradient>
    <linearGradient id="g-accent" x1="0" y1="0" x2="1" y2="1">
      <stop offset="0%" stop-color="#F59E0B"/>
      <stop offset="100%" stop-color="#0EA5A0"/>
    </linearGradient>
    <style>
      .word { font-family: Inter, ui-sans-serif, system-ui, -apple-system, BlinkMacSystemFont, Segoe UI, sans-serif; font-weight: 760; letter-spacing: -0.045em; }
      .label { font-family: Inter, ui-sans-serif, system-ui, -apple-system, BlinkMacSystemFont, Segoe UI, sans-serif; font-weight: 650; letter-spacing: 0.08em; }
      .caption { font-family: Inter, ui-sans-serif, system-ui, -apple-system, BlinkMacSystemFont, Segoe UI, sans-serif; font-weight: 450; }
      .mono { font-family: JetBrains Mono, SFMono-Regular, Menlo, Consolas, monospace; font-weight: 500; }
    </style>
  </defs>



<rect width="1600" height="1100" fill="#FFFFFF"/>
<text x="70" y="85" class="label" font-size="22" fill="#0EA5A0">MCP BROKER - ROUTING BACKBONE</text>
<text x="70" y="155" class="word" font-size="76" fill="#0D1117">Production brand identity</text>
<text x="70" y="205" class="caption" font-size="26" fill="#334155">Brand owner: Navin B Agrawal</text>

<rect x="70" y="260" width="520" height="420" rx="24" fill="#F8FAFC" stroke="#CBD5E1"/>
<text x="100" y="310" class="label" font-size="18" fill="#334155">PRIMARY MARK</text>
<g transform="translate(115,345) scale(0.66)">
<g stroke-linecap="round" stroke-linejoin="round">
  <circle cx="74" cy="256" r="24" stroke="#0EA5A0" stroke-width="18"/>
  <path d="M98 256 H172" stroke="#0EA5A0" stroke-width="18"/>
  <path d="M210 132 H154 C130 132 118 146 118 170 V342 C118 366 130 380 154 380 H210" stroke="#0D1117" stroke-width="28"/>
  <path d="M220 176 H276" stroke="#0D1117" stroke-width="24"/>
  <path d="M220 256 H294" stroke="#0D1117" stroke-width="24"/>
  <path d="M220 336 H276" stroke="#0D1117" stroke-width="24"/>
  <path d="M250 176 H336 C366 176 376 126 414 126" stroke="#0D1117" stroke-width="12"/>
  <path d="M250 256 H414" stroke="#0D1117" stroke-width="12"/>
  <path d="M250 336 H336 C366 336 376 386 414 386" stroke="#0D1117" stroke-width="12"/>
  <path d="M212 226 H260" stroke="#0EA5A0" stroke-width="18"/>
  <circle cx="436" cy="126" r="22" fill="#0EA5A0"/>
  <circle cx="436" cy="256" r="22" fill="#2563EB"/>
  <circle cx="436" cy="386" r="22" fill="#F59E0B"/>
</g>
</g>

<rect x="630" y="260" width="900" height="180" rx="24" fill="#F8FAFC" stroke="#CBD5E1"/>
<text x="660" y="310" class="label" font-size="18" fill="#334155">HORIZONTAL WORDMARK</text>
<g transform="translate(660,335) scale(0.28)">
<g stroke-linecap="round" stroke-linejoin="round">
  <circle cx="74" cy="256" r="24" stroke="#0EA5A0" stroke-width="18"/>
  <path d="M98 256 H172" stroke="#0EA5A0" stroke-width="18"/>
  <path d="M210 132 H154 C130 132 118 146 118 170 V342 C118 366 130 380 154 380 H210" stroke="#0D1117" stroke-width="28"/>
  <path d="M220 176 H276" stroke="#0D1117" stroke-width="24"/>
  <path d="M220 256 H294" stroke="#0D1117" stroke-width="24"/>
  <path d="M220 336 H276" stroke="#0D1117" stroke-width="24"/>
  <path d="M250 176 H336 C366 176 376 126 414 126" stroke="#0D1117" stroke-width="12"/>
  <path d="M250 256 H414" stroke="#0D1117" stroke-width="12"/>
  <path d="M250 336 H336 C366 336 376 386 414 386" stroke="#0D1117" stroke-width="12"/>
  <path d="M212 226 H260" stroke="#0EA5A0" stroke-width="18"/>
  <circle cx="436" cy="126" r="22" fill="#0EA5A0"/>
  <circle cx="436" cy="256" r="22" fill="#2563EB"/>
  <circle cx="436" cy="386" r="22" fill="#F59E0B"/>
</g>
</g>
<text x="850" y="408" class="word" font-size="64" fill="#0D1117">mcp-broker</text>

<rect x="630" y="470" width="430" height="210" rx="24" fill="#0D1117"/>
<text x="660" y="520" class="label" font-size="18" fill="#CBD5E1">ONE-COLOR WHITE</text>
<g transform="translate(700,545) scale(0.22)">
<g stroke-linecap="round" stroke-linejoin="round">
  <circle cx="74" cy="256" r="24" stroke="#FFFFFF" stroke-width="18"/>
  <path d="M98 256 H172" stroke="#FFFFFF" stroke-width="18"/>
  <path d="M210 132 H154 C130 132 118 146 118 170 V342 C118 366 130 380 154 380 H210" stroke="#FFFFFF" stroke-width="28"/>
  <path d="M220 176 H276" stroke="#FFFFFF" stroke-width="24"/>
  <path d="M220 256 H294" stroke="#FFFFFF" stroke-width="24"/>
  <path d="M220 336 H276" stroke="#FFFFFF" stroke-width="24"/>
  <path d="M250 176 H336 C366 176 376 126 414 126" stroke="#FFFFFF" stroke-width="12"/>
  <path d="M250 256 H414" stroke="#FFFFFF" stroke-width="12"/>
  <path d="M250 336 H336 C366 336 376 386 414 386" stroke="#FFFFFF" stroke-width="12"/>
  <path d="M212 226 H260" stroke="#FFFFFF" stroke-width="18"/>
  <circle cx="436" cy="126" r="22" fill="#FFFFFF"/>
  <circle cx="436" cy="256" r="22" fill="#FFFFFF"/>
  <circle cx="436" cy="386" r="22" fill="#FFFFFF"/>
</g>
</g>
<text x="850" y="610" class="word" font-size="48" fill="#FFFFFF">mcp-broker</text>

<rect x="1100" y="470" width="430" height="210" rx="24" fill="#FFFFFF" stroke="#CBD5E1"/>
<text x="1130" y="520" class="label" font-size="18" fill="#334155">ONE-COLOR BLACK</text>
<g transform="translate(1170,545) scale(0.22)">
<g stroke-linecap="round" stroke-linejoin="round">
  <circle cx="74" cy="256" r="24" stroke="#000000" stroke-width="18"/>
  <path d="M98 256 H172" stroke="#000000" stroke-width="18"/>
  <path d="M210 132 H154 C130 132 118 146 118 170 V342 C118 366 130 380 154 380 H210" stroke="#000000" stroke-width="28"/>
  <path d="M220 176 H276" stroke="#000000" stroke-width="24"/>
  <path d="M220 256 H294" stroke="#000000" stroke-width="24"/>
  <path d="M220 336 H276" stroke="#000000" stroke-width="24"/>
  <path d="M250 176 H336 C366 176 376 126 414 126" stroke="#000000" stroke-width="12"/>
  <path d="M250 256 H414" stroke="#000000" stroke-width="12"/>
  <path d="M250 336 H336 C366 336 376 386 414 386" stroke="#000000" stroke-width="12"/>
  <path d="M212 226 H260" stroke="#000000" stroke-width="18"/>
  <circle cx="436" cy="126" r="22" fill="#000000"/>
  <circle cx="436" cy="256" r="22" fill="#000000"/>
  <circle cx="436" cy="386" r="22" fill="#000000"/>
</g>
</g>
<text x="1320" y="610" class="word" font-size="48" fill="#000000">mcp-broker</text>

<text x="70" y="755" class="label" font-size="22" fill="#0D1117">CRITIQUE</text>
<text x="70" y="840" class="caption" font-size="22" fill="#334155">- Best favicon legibility.</text><text x="70" y="876" class="caption" font-size="22" fill="#334155">- Directly communicates one compact local entry routed to many upstream MCP servers.</text><text x="70" y="912" class="caption" font-size="22" fill="#334155">- Strong open-source developer infrastructure fit.</text>
<text x="70" y="1005" class="caption" font-size="24" fill="#0D1117">Rubric score: 9.2 / 10</text>

<text x="780" y="755" class="label" font-size="22" fill="#0D1117">COLOR PALETTE</text>
<rect x="780" y="800" width="92" height="92" rx="12" fill="#0D1117" stroke="#CBD5E1"/><text x="780" y="920" class="mono" font-size="16" fill="#334155">#0D1117</text><text x="780" y="950" class="caption" font-size="18" fill="#334155">Ink</text><rect x="900" y="800" width="92" height="92" rx="12" fill="#334155" stroke="#CBD5E1"/><text x="900" y="920" class="mono" font-size="16" fill="#334155">#334155</text><text x="900" y="950" class="caption" font-size="18" fill="#334155">Slate</text><rect x="1020" y="800" width="92" height="92" rx="12" fill="#0EA5A0" stroke="#CBD5E1"/><text x="1020" y="920" class="mono" font-size="16" fill="#334155">#0EA5A0</text><text x="1020" y="950" class="caption" font-size="18" fill="#334155">Primary</text><rect x="1140" y="800" width="92" height="92" rx="12" fill="#2563EB" stroke="#CBD5E1"/><text x="1140" y="920" class="mono" font-size="16" fill="#334155">#2563EB</text><text x="1140" y="950" class="caption" font-size="18" fill="#334155">Secondary</text><rect x="1260" y="800" width="92" height="92" rx="12" fill="#F59E0B" stroke="#CBD5E1"/><text x="1260" y="920" class="mono" font-size="16" fill="#334155">#F59E0B</text><text x="1260" y="950" class="caption" font-size="18" fill="#334155">Accent</text><rect x="1380" y="800" width="92" height="92" rx="12" fill="#F6F7F9" stroke="#CBD5E1"/><text x="1380" y="920" class="mono" font-size="16" fill="#334155">#F6F7F9</text><text x="1380" y="950" class="caption" font-size="18" fill="#334155">Fog</text>

<text x="70" y="1060" class="caption" font-size="18" fill="#64748B">Typography: Inter for UI/brand, JetBrains Mono for code snippets and CLI examples.</text>

</svg>
