<svg xmlns="http://www.w3.org/2000/svg" width="512" height="512" viewBox="0 0 512 512" fill="none">

  <defs>
    <linearGradient id="g-primary" x1="0" y1="0" x2="1" y2="1">
      <stop offset="0%" stop-color="#0EA5A0"/>
      <stop offset="100%" stop-color="#2563EB"/>
    </linearGradient>
    <linearGradient id="g-accent" x1="0" y1="0" x2="1" y2="1">
      <stop offset="0%" stop-color="#F59E0B"/>
      <stop offset="100%" stop-color="#0EA5A0"/>
    </linearGradient>
    <style>
      .word { font-family: Inter, ui-sans-serif, system-ui, -apple-system, BlinkMacSystemFont, Segoe UI, sans-serif; font-weight: 760; letter-spacing: -0.045em; }
      .label { font-family: Inter, ui-sans-serif, system-ui, -apple-system, BlinkMacSystemFont, Segoe UI, sans-serif; font-weight: 650; letter-spacing: 0.08em; }
      .caption { font-family: Inter, ui-sans-serif, system-ui, -apple-system, BlinkMacSystemFont, Segoe UI, sans-serif; font-weight: 450; }
      .mono { font-family: JetBrains Mono, SFMono-Regular, Menlo, Consolas, monospace; font-weight: 500; }
    </style>
  </defs>



<g stroke-linecap="round" stroke-linejoin="round">
  <circle cx="74" cy="256" r="24" stroke="#000000" stroke-width="18"/>
  <path d="M98 256 H172" stroke="#000000" stroke-width="18"/>
  <path d="M210 132 H154 C130 132 118 146 118 170 V342 C118 366 130 380 154 380 H210" stroke="#000000" stroke-width="28"/>
  <path d="M220 176 H276" stroke="#000000" stroke-width="24"/>
  <path d="M220 256 H294" stroke="#000000" stroke-width="24"/>
  <path d="M220 336 H276" stroke="#000000" stroke-width="24"/>
  <path d="M250 176 H336 C366 176 376 126 414 126" stroke="#000000" stroke-width="12"/>
  <path d="M250 256 H414" stroke="#000000" stroke-width="12"/>
  <path d="M250 336 H336 C366 336 376 386 414 386" stroke="#000000" stroke-width="12"/>
  <path d="M212 226 H260" stroke="#000000" stroke-width="18"/>
  <circle cx="436" cy="126" r="22" fill="#000000"/>
  <circle cx="436" cy="256" r="22" fill="#000000"/>
  <circle cx="436" cy="386" r="22" fill="#000000"/>
</g>

</svg>
